<svg width="211" height="210" viewBox="0 0 211 210" fill="none" xmlns="http://www.w3.org/2000/svg">
<path d="M98.4474 195.862L96.6738 209.076L90.5008 208.248C89.3426 208.092 88.4508 207.634 87.8255 206.873C87.1878 206.11 86.9418 205.186 87.0873 204.102C87.3139 202.414 88.2241 201.426 89.8181 201.138L89.8256 201.083C89.204 200.761 88.7915 200.329 88.5882 199.788C88.371 199.257 88.2994 198.482 88.3734 197.464C88.4767 195.759 88.3999 194.789 88.143 194.554L88.1529 194.48L89.9457 194.721C90.0663 194.85 90.1335 195.097 90.1471 195.463C90.1485 195.827 90.1092 196.587 90.0293 197.742C89.9619 198.712 90.1112 199.422 90.4773 199.872C90.8309 200.321 91.4575 200.606 92.357 200.727L96.0349 201.22L96.784 195.639L98.4474 195.862ZM95.2039 207.412L95.8538 202.569L91.9356 202.043C91.0238 201.921 90.3057 202.038 89.7813 202.394C89.2552 202.762 88.9409 203.329 88.8384 204.092C88.7276 204.918 88.8552 205.556 89.2212 206.007C89.5872 206.457 90.2446 206.746 91.1933 206.873L95.2039 207.412Z" fill="black"/>
<path d="M82.5855 193.164L78.5761 205.88L69.5949 203.049L70.0379 201.644L77.4185 203.971L78.6858 199.951L71.981 197.837L72.4072 196.486L79.112 198.6L80.5195 194.136L72.9254 191.741L73.3909 190.265L82.5855 193.164Z" fill="black"/>
<path d="M69.079 188.575L58.5964 198.164L56.9236 197.298L58.6779 183.194L60.301 184.034L59.6917 188.296L64.412 190.738L67.5553 187.787L69.079 188.575ZM59.8915 194.971L63.3558 191.724L59.4803 189.719L58.7818 194.397L58.4464 196.344L58.4795 196.361C59.032 195.807 59.5027 195.344 59.8915 194.971Z" fill="black"/>
<path d="M54.0958 180.238L45.9437 190.788L42.1071 187.824C40.5627 186.63 39.7656 185.252 39.7159 183.69C39.6662 182.128 40.2723 180.53 41.534 178.897C42.7882 177.274 44.1846 176.311 45.7232 176.007C47.2618 175.703 48.8083 176.152 50.3626 177.353L54.0958 180.238ZM51.8671 180.377L49.5061 178.553C47.1943 176.767 44.9895 177.231 42.8916 179.946C40.7481 182.72 40.7978 184.974 43.0407 186.707L45.505 188.611L51.8671 180.377Z" fill="black"/>
<path d="M38.6066 166.669L34.4058 170.448L31.9236 179.177L30.6766 177.79L32.8339 170.708L32.809 170.68L25.5012 172.037L24.304 170.706L33.3111 169.175L37.4843 165.422L38.6066 166.669Z" fill="black"/>
<path d="M16.9501 157.611L15.6468 158.298L10.7262 148.961L12.0294 148.274L14.0985 152.2L24.5907 146.671L25.3731 148.156L14.881 153.685L16.9501 157.611Z" fill="black"/>
<path d="M15.5052 127.821C17.1016 128.562 18.1922 129.877 18.7771 131.766C19.362 133.654 19.2076 135.361 18.3138 136.887C17.4164 138.402 15.9999 139.459 14.0642 140.058C12.1286 140.658 10.3626 140.587 8.76625 139.845C7.16623 139.091 6.07377 137.77 5.48888 135.882C4.90399 133.994 5.06026 132.293 5.95767 130.778C6.85141 129.252 8.2661 128.189 10.2017 127.589C12.1374 126.99 13.9052 127.067 15.5052 127.821ZM16.9576 136.038C17.6813 134.929 17.8187 133.65 17.3699 132.202C16.9211 130.753 16.0848 129.775 14.8609 129.27C13.637 128.764 12.2531 128.75 10.7094 129.228C9.16562 129.706 8.03193 130.5 7.30832 131.609C6.57283 132.722 6.42948 134.003 6.87826 135.452C7.32705 136.9 8.16933 137.876 9.4051 138.378C10.629 138.884 12.0128 138.898 13.5566 138.419C15.1003 137.941 16.234 137.148 16.9576 136.038Z" fill="black"/>
<path d="M14.7148 108.137C14.7794 109.926 14.3881 111.321 13.541 112.322C12.6935 113.31 11.5629 113.867 10.1493 113.993L10.0901 112.353C12.368 112.047 13.4614 110.633 13.3704 108.111C13.3358 107.154 13.0971 106.398 12.654 105.842C12.1981 105.273 11.5664 105.004 10.7589 105.033C10.3986 105.046 10.0842 105.126 9.81584 105.272C9.54746 105.419 9.32988 105.595 9.16313 105.8C8.99592 105.992 8.84473 106.284 8.70955 106.674C8.57436 107.065 8.46934 107.429 8.39449 107.768C8.31918 108.094 8.22972 108.545 8.12612 109.121C8.0017 109.81 7.87302 110.381 7.74008 110.833C7.59471 111.286 7.39344 111.741 7.13627 112.198C6.87909 112.656 6.54333 113.004 6.129 113.242C5.7018 113.469 5.18381 113.594 4.57505 113.616C3.48177 113.655 2.60974 113.276 1.95895 112.479C1.2953 111.669 0.938807 110.581 0.889477 109.214C0.7814 106.22 2.10588 104.487 4.8629 104.014L4.92008 105.598C3.98037 105.757 3.285 106.136 2.83397 106.737C2.37053 107.339 2.15674 108.136 2.19262 109.13C2.2258 110.049 2.43862 110.776 2.83106 111.309C3.22305 111.83 3.7607 112.078 4.44401 112.053C4.74217 112.042 5.00726 111.977 5.23928 111.856C5.45842 111.724 5.64538 111.562 5.80016 111.37C5.94207 111.166 6.06954 110.906 6.18257 110.591C6.29514 110.263 6.38931 109.943 6.46506 109.629C6.52839 109.316 6.59547 108.934 6.66629 108.483C6.76811 107.858 6.86774 107.344 6.96521 106.943C7.05025 106.541 7.18962 106.095 7.38333 105.603C7.57705 105.11 7.80586 104.729 8.06976 104.458C8.33321 104.175 8.6852 103.932 9.12573 103.73C9.55338 103.515 10.0592 103.397 10.6431 103.376C11.8606 103.332 12.8336 103.751 13.5621 104.633C14.2776 105.503 14.6619 106.671 14.7148 108.137Z" fill="black"/>
<path d="M2.74764 96.1262L1.28807 95.9266L2.71839 85.4693L4.17796 85.669L3.57652 90.0662L15.327 91.6734L15.0996 93.3362L3.34909 91.729L2.74764 96.1262Z" fill="black"/>
<path d="M16.8566 82.815L5.63732 74.1L6.2082 72.3052L20.4062 71.6552L19.8523 73.3967L15.5488 73.515L13.9379 78.5796L17.3766 81.1801L16.8566 82.815ZM9.00317 74.8379L12.7876 77.705L14.1103 73.5467L9.38187 73.6473L7.40619 73.6451L7.39488 73.6806C8.0341 74.1318 8.5702 74.5176 9.00317 74.8379Z" fill="black"/>
<path d="M22.5693 66.6452L10.7687 60.4391L13.6678 54.9266C14.2117 53.8924 14.9486 53.2124 15.8783 52.8867C16.8139 52.55 17.7658 52.6362 18.7341 53.1455C20.2415 53.9382 20.8565 55.1325 20.579 56.7283L20.6286 56.7544C21.1443 56.2812 21.6914 56.0422 22.2698 56.0373C22.843 56.0157 23.5952 56.2147 24.5264 56.6342C26.0917 57.3169 27.0289 57.578 27.338 57.4175L27.404 57.4523L26.5621 59.0532C26.3994 59.1221 26.144 59.1002 25.796 58.9874C25.4538 58.8636 24.7537 58.5657 23.6957 58.0935C22.8085 57.6972 22.0905 57.5935 21.5417 57.7824C20.9986 57.9603 20.5159 58.4509 20.0935 59.2541L18.3662 62.5385L23.3505 65.1598L22.5693 66.6452ZM12.8372 59.6307L17.1614 61.9049L19.0015 58.4059C19.4297 57.5917 19.5667 56.8772 19.4125 56.2623C19.2473 55.6417 18.8236 55.152 18.1414 54.7932C17.4042 54.4055 16.7612 54.3061 16.2123 54.4951C15.6635 54.684 15.1663 55.2021 14.7207 56.0493L12.8372 59.6307Z" fill="black"/>
<path d="M20.6437 46.1051L19.4765 45.2064L25.9157 36.8436L27.083 37.7424L24.3753 41.2589L33.7723 48.4945L32.7483 49.8243L23.3514 42.5886L20.6437 46.1051Z" fill="black"/>
<path d="M44.4573 36.7566L40.0611 23.2474L41.5408 22.0822L53.6576 29.5112L52.2219 30.6418L48.5933 28.3249L44.4181 31.6131L45.8051 35.6952L44.4573 36.7566ZM42.4331 25.7469L43.9567 30.2436L47.3849 27.5439L43.4146 24.9739L41.7805 23.8635L41.7512 23.8865C42.0272 24.6187 42.2544 25.2388 42.4331 25.7469Z" fill="black"/>
<path d="M64.3044 23.2402L58.8732 11.0634L63.9482 8.79978C65.2199 8.2326 66.3596 8.19385 67.3675 8.68353C68.1961 9.07626 68.813 9.72677 69.2181 10.6351C69.7245 11.7704 69.7877 12.7972 69.4077 13.7153C69.0277 14.6335 68.1849 15.3838 66.8792 15.9661L63.5583 17.4474L65.8372 22.5565L64.3044 23.2402ZM60.9984 11.7081L63.0038 16.2042L66.2055 14.7761C67.0457 14.4014 67.5872 13.9216 67.83 13.3369C68.0842 12.7471 68.0518 12.0945 67.7328 11.3792C67.4087 10.6526 66.9473 10.1982 66.3488 10.0159C65.7565 9.81728 65.0687 9.89267 64.2853 10.2421L60.9984 11.7081Z" fill="black"/>
<path d="M78.4877 17.4581L75.2209 4.53146L81.2594 3.00543C82.3923 2.71911 83.3906 2.81305 84.2541 3.28723C85.1297 3.75838 85.7016 4.52427 85.9696 5.58492C86.3869 7.23616 85.9092 8.49169 84.5365 9.3515L84.5502 9.40574C85.2469 9.47331 85.7902 9.72067 86.1803 10.1478C86.5793 10.5599 86.9339 11.2525 87.2439 12.2256C87.7817 13.8463 88.2136 14.7181 88.5396 14.8409L88.5578 14.9132L86.8041 15.3564C86.6441 15.2815 86.4899 15.0768 86.3413 14.7425C86.2047 14.4052 85.9586 13.6852 85.6031 12.5825C85.3052 11.6576 84.9026 11.0541 84.3954 10.772C83.9002 10.4868 83.2126 10.4554 82.3328 10.6778L78.735 11.587L80.1148 17.0469L78.4877 17.4581ZM77.2044 5.53044L78.4015 10.2672L82.2343 9.29859C83.1262 9.07319 83.7494 8.69772 84.1038 8.17217C84.4552 7.63458 84.5365 6.99214 84.3476 6.24486C84.1435 5.43732 83.7879 4.89249 83.2806 4.61036C82.7733 4.32823 82.0557 4.30444 81.1276 4.53898L77.2044 5.53044Z" fill="black"/>
<path d="M104.83 11.6695C103.728 13.0419 102.19 13.7861 100.216 13.9021C98.2432 14.0182 96.6226 13.4597 95.3546 12.2266C94.099 10.9929 93.4117 9.36457 93.2927 7.34168C93.1738 5.3188 93.6655 3.62115 94.7678 2.24873C95.8826 0.875589 97.4266 0.130999 99.3998 0.0149627C101.373 -0.101073 102.988 0.457786 104.243 1.69154C105.511 2.92457 106.205 4.55252 106.324 6.57541C106.443 8.59829 105.945 10.2963 104.83 11.6695ZM96.5033 11.113C97.407 12.081 98.6159 12.5205 100.13 12.4315C101.644 12.3425 102.793 11.7643 103.577 10.697C104.361 9.62977 104.706 8.28946 104.611 6.67612C104.516 5.06277 104.017 3.77209 103.113 2.80407C102.209 1.82364 100.999 1.37794 99.4852 1.46697C97.9712 1.55601 96.8225 2.14036 96.0391 3.22005C95.2551 4.28732 94.9105 5.62763 95.0054 7.24097C95.1002 8.85432 95.5995 10.145 96.5033 11.113Z" fill="black"/>
<path d="M115.621 14.2656C113.027 13.9705 111.896 12.3654 112.228 9.45026L112.249 9.26498L113.898 9.45258L113.883 9.58227C113.754 10.7187 113.842 11.5358 114.149 12.0335C114.469 12.5204 115.03 12.8095 115.833 12.9008C117.241 13.061 118.034 12.3567 118.213 10.788L119.326 1.00515L120.993 1.19486L119.868 11.0889C119.743 12.1882 119.309 13.0273 118.568 13.6061C117.839 14.1862 116.857 14.4061 115.621 14.2656Z" fill="black"/>
<path d="M125.468 15.5153L129.006 2.66003L138.085 5.15836L137.694 6.57873L130.233 4.52566L129.115 8.58901L135.893 10.4541L135.517 11.8205L128.739 9.95545L127.497 14.4683L135.174 16.5807L134.764 18.073L125.468 15.5153Z" fill="black"/>
<path d="M145.167 22.7383C143.476 21.9236 142.395 20.6857 141.926 19.0245C141.457 17.3634 141.665 15.6144 142.549 13.7776C143.423 11.9632 144.653 10.7135 146.239 10.0284C147.841 9.33759 149.516 9.41301 151.263 10.2547C152.63 10.9129 153.563 11.7971 154.063 12.9074C154.563 14.0176 154.622 15.1844 154.24 16.4077L152.761 15.6956C152.983 14.8638 152.907 14.0754 152.535 13.3302C152.173 12.5905 151.528 11.9967 150.598 11.5489C149.31 10.9284 148.079 10.9077 146.903 11.4866C145.732 12.0543 144.796 13.0661 144.095 14.5221C143.383 16.0005 143.183 17.3741 143.497 18.6427C143.827 19.9056 144.613 20.8365 145.857 21.4354C146.932 21.9533 147.912 22.039 148.796 21.6923C149.692 21.3511 150.408 20.7233 150.945 19.8091L152.441 20.5294C152.143 21.1176 151.709 21.6605 151.138 22.1583C150.584 22.6502 149.994 23.0008 149.369 23.2102C148.102 23.6347 146.701 23.4775 145.167 22.7383Z" fill="black"/>
<path d="M161.994 18.1691L162.861 16.9781L171.393 23.1906L170.526 24.3815L166.938 21.7692L159.958 31.3571L158.601 30.3692L165.582 20.7814L161.994 18.1691Z" fill="black"/>
<path d="M171.783 37.1998C172.507 36.499 173.172 36.0397 173.779 35.822C174.404 35.6043 175.204 35.5279 176.18 35.5927C176.698 35.6208 177.059 35.6396 177.261 35.649C177.472 35.6497 177.758 35.5936 178.118 35.4805C178.479 35.3674 178.792 35.1795 179.057 34.9166C179.506 34.4698 179.723 33.9387 179.708 33.3233C179.701 32.6992 179.422 32.1093 178.87 31.5536C178.213 30.8921 177.511 30.5909 176.763 30.6499C176.033 30.709 175.307 31.0801 174.584 31.7634L173.506 30.6785C174.485 29.7412 175.529 29.2392 176.636 29.1726C177.744 29.106 178.819 29.5975 179.862 30.6471C180.756 31.5467 181.214 32.4933 181.237 33.4867C181.269 34.4714 180.923 35.3229 180.2 36.0413C179.706 36.5319 179.182 36.8334 178.628 36.9459C178.082 37.0671 177.462 37.0958 176.768 37.0319C175.705 36.9316 174.936 36.9422 174.461 37.0637C173.994 37.194 173.435 37.5745 172.782 38.2053L171.783 37.1998ZM169.35 39.3277L170.66 38.0267L171.935 39.31L170.625 40.6111L169.35 39.3277Z" fill="black"/>
<path d="M186.665 53.6188C186.081 53.4948 185.622 53.1775 185.29 52.6667C184.958 52.156 184.851 51.6031 184.968 51.0079C185.096 50.4059 185.415 49.9389 185.926 49.6069C186.436 49.2749 186.993 49.1727 187.595 49.3003C188.196 49.4279 188.663 49.7471 188.995 50.2578C189.328 50.7686 189.426 51.3197 189.292 51.9112C189.164 52.5132 188.845 52.9802 188.334 53.3122C187.824 53.6442 187.267 53.7464 186.665 53.6188Z" fill="black"/>
<path d="M191.167 73.5348C190.524 71.7713 190.613 70.1308 191.436 68.6132C192.258 67.0955 193.627 65.9872 195.542 65.2883C197.434 64.5979 199.187 64.5603 200.801 65.1756C202.431 65.7983 203.579 67.0206 204.244 68.8424C204.764 70.2672 204.815 71.5517 204.399 72.6961C203.983 73.8405 203.212 74.7176 202.084 75.3275L201.522 73.7859C202.26 73.3443 202.756 72.7267 203.009 71.933C203.266 71.151 203.218 70.2753 202.864 69.306C202.374 67.963 201.506 67.0888 200.26 66.6834C199.025 66.2737 197.649 66.3459 196.131 66.9C194.589 67.4625 193.488 68.3076 192.828 69.4353C192.183 70.5703 192.097 71.786 192.57 73.0823C192.98 74.2035 193.622 74.9483 194.498 75.317C195.377 75.6973 196.329 75.7472 197.351 75.4667L197.92 77.0258C197.297 77.24 196.607 77.3262 195.851 77.2846C195.11 77.2504 194.443 77.0902 193.849 76.8041C192.645 76.2245 191.751 75.1348 191.167 73.5348Z" fill="black"/>
<path d="M198.244 95.169C196.774 94.2003 195.889 92.7391 195.588 90.7854C195.287 88.8318 195.691 87.1659 196.8 85.7878C197.911 84.4219 199.467 83.5849 201.47 83.2766C203.473 82.9683 205.209 83.2986 206.679 84.2673C208.151 85.2483 209.037 86.7156 209.337 88.6692C209.638 90.6229 209.233 92.2826 208.123 93.6485C207.014 95.0266 205.458 95.8698 203.456 96.178C201.453 96.4863 199.716 96.1499 198.244 95.169ZM198.017 86.8269C197.138 87.8175 196.813 89.0623 197.044 90.5613C197.275 92.0604 197.958 93.1501 199.094 93.8305C200.231 94.511 201.597 94.7283 203.195 94.4824C204.792 94.2366 206.03 93.6184 206.909 92.6278C207.8 91.6353 208.131 90.3895 207.9 88.8905C207.669 87.3915 206.98 86.3027 205.831 85.6241C204.695 84.9437 203.328 84.7264 201.731 84.9722C200.134 85.2181 198.895 85.8363 198.017 86.8269Z" fill="black"/>
<path d="M197.085 103.06L210.407 103.597L210.336 105.367L200.831 111.068L199.078 111.968L199.076 112.005L210.051 112.448L209.988 114.013L196.665 113.476L196.734 111.762L206.26 106.024L207.958 105.104L207.959 105.066L197.022 104.626L197.085 103.06Z" fill="black"/>
<path d="M207.56 121.599L208.998 121.915L206.731 132.223L205.292 131.907L206.246 127.572L194.663 125.025L195.023 123.386L206.606 125.933L207.56 121.599Z" fill="black"/>
<path d="M192.425 133.732L202.907 143.321L202.194 145.064L187.989 144.57L188.681 142.878L192.981 143.107L194.994 138.188L191.775 135.319L192.425 133.732ZM199.611 142.315L196.07 139.152L194.417 143.191L199.138 143.471L201.107 143.632L201.121 143.598C200.521 143.096 200.017 142.669 199.611 142.315Z" fill="black"/>
<path d="M182.14 154.088C183.158 152.511 184.52 151.592 186.227 151.333C187.933 151.073 189.643 151.495 191.356 152.601C193.048 153.693 194.136 155.068 194.619 156.727C195.106 158.402 194.824 160.055 193.772 161.684C192.95 162.958 191.957 163.775 190.793 164.134C189.63 164.492 188.465 164.406 187.298 163.875L188.188 162.497C188.986 162.819 189.778 162.842 190.563 162.565C191.342 162.298 192.011 161.731 192.571 160.864C193.346 159.663 193.519 158.443 193.09 157.205C192.672 155.973 191.784 154.919 190.426 154.042C189.047 153.153 187.709 152.785 186.411 152.938C185.117 153.109 184.096 153.775 183.348 154.934C182.7 155.937 182.494 156.899 182.728 157.819C182.956 158.75 183.49 159.539 184.331 160.185L183.431 161.58C182.884 161.212 182.399 160.714 181.976 160.086C181.557 159.475 181.282 158.846 181.151 158.2C180.887 156.89 181.217 155.519 182.14 154.088Z" fill="black"/>
<path d="M184.59 171.351L185.664 172.359L178.443 180.057L177.368 179.049L180.405 175.812L171.756 167.698L172.904 166.474L181.553 174.588L184.59 171.351Z" fill="black"/>
<path d="M154.861 181.378C156.169 180.539 157.414 180.178 158.595 180.292C159.765 180.414 160.766 181.123 161.597 182.421L166.466 190.021L165.053 190.926L160.275 183.468C159.108 181.647 157.546 181.363 155.588 182.617C153.694 183.831 153.33 185.348 154.496 187.17L159.274 194.628L157.861 195.533L152.993 187.934C152.168 186.646 151.952 185.433 152.345 184.296C152.735 183.175 153.573 182.202 154.861 181.378Z" fill="black"/>
<path d="M140.677 188.749C142.33 188.062 143.774 187.941 145.008 188.384C146.23 188.832 147.148 189.696 147.76 190.977L146.244 191.606C145.161 189.579 143.453 189.049 141.123 190.017C140.239 190.384 139.614 190.873 139.247 191.482C138.875 192.108 138.843 192.794 139.153 193.541C139.291 193.874 139.476 194.14 139.707 194.34C139.938 194.54 140.179 194.683 140.43 194.767C140.669 194.856 140.995 194.896 141.408 194.886C141.821 194.876 142.199 194.847 142.543 194.798C142.874 194.755 143.328 194.681 143.904 194.576C144.593 194.452 145.172 194.373 145.643 194.339C146.118 194.317 146.615 194.346 147.133 194.427C147.651 194.508 148.095 194.701 148.464 195.005C148.826 195.326 149.123 195.768 149.357 196.33C149.777 197.341 149.727 198.29 149.207 199.179C148.681 200.084 147.786 200.799 146.523 201.323C143.756 202.472 141.669 201.838 140.262 199.42L141.726 198.812C142.203 199.637 142.802 200.156 143.522 200.368C144.248 200.592 145.07 200.513 145.989 200.132C146.838 199.779 147.444 199.326 147.806 198.771C148.157 198.222 148.201 197.631 147.939 197C147.825 196.724 147.67 196.499 147.476 196.324C147.276 196.165 147.058 196.046 146.824 195.969C146.583 195.907 146.296 195.879 145.961 195.883C145.615 195.892 145.281 195.916 144.961 195.955C144.645 196.005 144.264 196.076 143.817 196.167C143.196 196.291 142.68 196.377 142.269 196.426C141.864 196.487 141.397 196.513 140.868 196.503C140.339 196.494 139.902 196.413 139.556 196.261C139.198 196.113 138.847 195.868 138.504 195.526C138.153 195.201 137.866 194.768 137.642 194.229C137.175 193.103 137.227 192.045 137.798 191.054C138.362 190.08 139.322 189.311 140.677 188.749Z" fill="black"/>
<path d="M113.928 200.158C114.306 199.696 114.798 199.434 115.404 199.373C116.011 199.312 116.551 199.471 117.026 199.848C117.503 200.237 117.771 200.735 117.832 201.341C117.893 201.947 117.728 202.489 117.339 202.965C116.949 203.441 116.451 203.71 115.845 203.771C115.239 203.831 114.704 203.666 114.24 203.275C113.764 202.886 113.495 202.388 113.434 201.782C113.374 201.176 113.538 200.635 113.928 200.158Z" fill="black"/>
</svg>
